<svg height="480pt" viewBox="0 0 480.72 480" width="480pt" xmlns="http://www.w3.org/2000/svg"><path d="m280.71875 8.359375c66.277344 0 120 53.726563 120 120v176h-240v-176c0-66.273437 53.726562-120 120-120zm0 0" fill="#c4f236"/><path d="m304.71875 248.359375c-53.019531 0-96-42.980469-96-96v-24c-.011719-57.03125 40.121094-106.191406 96-117.597656-7.894531-1.617188-15.9375-2.417969-24-2.402344-66.273438 0-120 53.726563-120 120v176h240v-56zm0 0" fill="#a1d51c"/><path d="m152.71875 280.359375c-35.34375 0-64 28.65625-64 64v128h384v-128c0-35.34375-28.652344-64-64-64zm0 0" fill="#f8664f"/><path d="m144.71875 328.359375v-47.4375c-31.976562 4.027344-55.96875 31.207031-56 63.4375v128h384v-48h-232c-53.019531 0-96-42.980469-96-96zm0 0" fill="#cc5144"/><path d="m320.71875 280.359375-40 56-40-56v-40h80zm0 0" fill="#fcbc04"/><path d="m240.71875 280.359375 3.839844 5.359375c27.179687 7.175781 56.128906-.515625 76.160156-20.238281v-25.121094h-80zm0 0" fill="#e59730"/><path d="m320.71875 280.359375-40 56 72 32-10.320312-88zm0 0" fill="#f89c8d"/><path d="m240.71875 280.359375 40 56-72 32 10.320312-88zm0 0" fill="#f89c8d"/><path d="m200.71875 104.359375h160v80c0 44.183594-35.816406 80-80 80-44.179688 0-80-35.816406-80-80zm0 0" fill="#f9e109"/><path d="m232.71875 184.359375v-24c0-17.671875 14.328125-32 32-32h96v-24h-160v80c0 44.183594 35.820312 80 80 80 5.375-.003906 10.734375-.539063 16-1.597656-37.253906-7.605469-64.007812-40.378907-64-78.402344zm0 0" fill="#fcbc04"/><path d="m312.71875 136.359375h32c8.835938 0 16 7.164063 16 16v16c0 8.835937-7.164062 16-16 16h-32c-8.835938 0-16-7.164063-16-16v-16c0-8.835937 7.164062-16 16-16zm0 0" fill="#57b7eb"/><path d="m216.71875 136.359375h32c8.835938 0 16 7.164063 16 16v16c0 8.835937-7.164062 16-16 16h-32c-8.835938 0-16-7.164063-16-16v-16c0-8.835937 7.164062-16 16-16zm0 0" fill="#57b7eb"/><path d="m248.71875 184.359375-32-48h32c8.835938 0 16 7.164063 16 16v16c0 8.835937-7.164062 16-16 16zm0 0" fill="#aae1f9"/><path d="m344.71875 184.359375-32-48h32c8.835938 0 16 7.164063 16 16v16c0 8.835937-7.164062 16-16 16zm0 0" fill="#aae1f9"/><path d="m8.71875 344.359375h112v128h-88c-13.253906 0-24-10.746094-24-24zm0 0" fill="#57b7eb"/><path d="m32.71875 400.359375v-56h-24v104c0 13.253906 10.746094 24 24 24h88v-24h-40c-26.507812 0-48-21.488281-48-48zm0 0" fill="#4891d3"/><path d="m32.71875 320.359375h88v48h-88c-13.253906 0-24-10.746094-24-24s10.746094-24 24-24zm0 0" fill="#aae1f9"/><path d="m32.71875 336.359375h88v16h-88c-4.417969 0-8-3.582031-8-8s3.582031-8 8-8zm0 0" fill="#57b7eb"/><g fill="#39519d"><path d="m336.71875 160.359375c0 4.417969-3.582031 8-8 8s-8-3.582031-8-8 3.582031-8 8-8 8 3.582031 8 8zm0 0"/><path d="m240.71875 160.359375c0 4.417969-3.582031 8-8 8s-8-3.582031-8-8 3.582031-8 8-8 8 3.582031 8 8zm0 0"/><path d="m408.71875 424.359375c-4.417969 0-8 3.582031-8 8v40c0 4.417969 3.582031 8 8 8s8-3.582031 8-8v-40c0-4.417969-3.582031-8-8-8zm0 0"/><path d="m152.71875 424.359375c-4.417969 0-8 3.582031-8 8v40c0 4.417969 3.582031 8 8 8s8-3.582031 8-8v-40c0-4.417969-3.582031-8-8-8zm0 0"/><path d="m320.71875 400.359375c0 4.417969-3.582031 8-8 8s-8-3.582031-8-8 3.582031-8 8-8 8 3.582031 8 8zm0 0"/><path d="m320.71875 440.359375c0 4.417969-3.582031 8-8 8s-8-3.582031-8-8 3.582031-8 8-8 8 3.582031 8 8zm0 0"/><path d="m160.71875 256.359375c4.417969 0 8-3.582031 8-8v-120c0-61.855469 50.144531-112 112-112s112 50.144531 112 112v120c0 4.417969 3.582031 8 8 8s8-3.582031 8-8v-120c0-70.691406-57.304688-128-128-128-70.691406 0-128 57.308594-128 128v120c0 4.417969 3.582031 8 8 8zm0 0"/><path d="m408.71875 272.359375h-80v-14.320313c24.929688-16.222656 39.976562-43.9375 40-73.679687v-80c0-4.417969-3.582031-8-8-8h-32c-4.417969 0-8 3.582031-8 8s3.582031 8 8 8h24v17.441406c-2.5625-.933593-5.269531-1.417969-8-1.441406h-32c-13.253906 0-24 10.746094-24 24h-16c0-4.417969-3.582031-8-8-8s-8 3.582031-8 8v16c0 4.417969-3.582031 8-8 8h-32c-4.417969 0-8-3.582031-8-8v-16c0-4.417969 3.582031-8 8-8h24c4.417969 0 8-3.582031 8-8s-3.582031-8-8-8h-24c-2.726562.023437-5.433594.507813-8 1.441406v-17.441406h88c4.417969 0 8-3.582031 8-8s-3.582031-8-8-8h-96c-4.417969 0-8 3.582031-8 8v80c.027344 29.742187 15.074219 57.457031 40 73.679687v14.320313h-80c-12.089844.039063-23.972656 3.121094-34.558594 8.960937-3.246094 1.75-4.875 5.492188-3.945312 9.058594.933594 3.566406 4.179687 6.039063 7.863281 5.980469 1.34375.007813 2.664063-.324219 3.84375-.960937 8.171875-4.621094 17.40625-7.046876 26.796875-7.039063h57.28125l-9.28125 79.039063c-.359375 2.878906.867188 5.722656 3.203125 7.441406 1.394531 1.011718 3.078125 1.542968 4.796875 1.519531 1.132812-.003906 2.25-.25 3.28125-.71875l60.71875-26.960937v123.679687c0 4.417969 3.582031 8 8 8s8-3.582031 8-8v-123.679687l60.722656 26.960937c1.027344.46875 2.148438.714844 3.277344.71875 1.695312.007813 3.347656-.527344 4.722656-1.519531 2.335938-1.71875 3.558594-4.5625 3.199219-7.441406l-6.5625-56c-.539063-4.332032-4.457031-7.429688-8.796875-6.957032-2.113281.238282-4.042969 1.3125-5.363281 2.976563-1.320313 1.667969-1.925781 3.789062-1.679688 5.902343l4.882813 42-50.160156-22.320312 32-44.640625h83.757812c30.929688 0 56 25.074219 56 56v128c0 4.417969 3.582031 8 8 8s8-3.582031 8-8v-128c0-39.765625-32.234375-72-72-72zm-104-120c0-4.417969 3.582031-8 8-8h32c4.417969 0 8 3.582031 8 8v16c0 4.417969-3.582031 8-8 8h-32c-4.417969 0-8-3.582031-8-8zm-96 38.640625c2.570312.902344 5.277344 1.363281 8 1.359375h32c13.257812 0 24-10.746094 24-24h16c0 13.253906 10.746094 24 24 24h32c2.726562.003906 5.429688-.457031 8-1.359375-3.496094 36.972656-34.542969 65.21875-71.679688 65.21875-37.136718 0-68.179687-28.246094-71.679687-65.21875zm72 81.359375c10.953125-.03125 21.800781-2.089844 32-6.078125v11.519531l-32 44.800781-32-44.800781v-11.519531c10.199219 3.988281 21.050781 6.046875 32 6.078125zm-54.558594 16h10.480469l32 44.640625-50.320313 22.320312zm0 0"/><path d="m37.121094 159.480469c3.933594 1.976562 8.722656.402343 10.71875-3.519531l5.839844-11.601563h38.082031l5.839843 11.601563c1.355469 2.6875 4.105469 4.390624 7.117188 4.398437 1.257812.015625 2.496094-.285156 3.601562-.878906 3.921876-1.996094 5.496094-6.789063 3.519532-10.71875l-32-64c-1.367188-2.671875-4.117188-4.355469-7.121094-4.355469-3 0-5.75 1.683594-7.117188 4.355469l-32 64c-1.976562 3.929687-.402343 8.722656 3.519532 10.71875zm35.597656-53.199219 11.042969 22.078125h-22.082031zm0 0"/><path d="m24.71875 248.359375h16c13.257812 0 24-10.746094 24-24s-10.742188-24-24-24h-8v-16c0-4.417969-3.582031-8-8-8s-8 3.582031-8 8v56c0 4.417969 3.582031 8 8 8zm24-24c0 4.417969-3.582031 8-8 8h-8v-16h8c4.417969 0 8 3.582031 8 8zm0 0"/><path d="m88.71875 224.359375c0 13.253906 10.746094 24 24 24h8c4.417969 0 8-3.582031 8-8s-3.582031-8-8-8h-8c-4.417969 0-8-3.582031-8-8s3.582031-8 8-8h8c4.417969 0 8-3.582031 8-8s-3.582031-8-8-8h-8c-13.253906 0-24 10.746094-24 24zm0 0"/><path d="m88.71875 400.359375h-48c-4.417969 0-8 3.582031-8 8s3.582031 8 8 8h48c4.417969 0 8-3.582031 8-8s-3.582031-8-8-8zm0 0"/><path d="m80.71875 432.359375h-32c-4.417969 0-8 3.582031-8 8s3.582031 8 8 8h32c4.417969 0 8-3.582031 8-8s-3.582031-8-8-8zm0 0"/><path d="m128.71875 368.359375c-.035156-1.222656-.335938-2.421875-.878906-3.519531-1.332032-2.722656-4.089844-4.457032-7.121094-4.480469h-88c-8.835938 0-16-7.164063-16-16s7.164062-16 16-16h80v8c0 4.417969 3.582031 8 8 8s8-3.582031 8-8v-16c0-4.417969-3.582031-8-8-8h-88c-16.605469-.066406-30.503906 12.582031-32 29.121094-.46875 1.03125-.71484375 2.148437-.71875 3.28125l.640625 104c0 17.671875 14.328125 32 32 32l88-.640625c2.097656-.011719 4.109375-.84375 5.597656-2.320313 1.5-1.511719 2.335938-3.554687 2.320313-5.679687l.160156-102.480469c.039062-.425781.039062-.855469 0-1.28125zm-95.597656 96h-.402344c-8.835938 0-16-7.164063-16-16v-76.558594c4.839844 2.902344 10.359375 4.476563 16 4.558594h80l.640625 88zm0 0"/></g></svg>